<?xml version="1.0" encoding="utf-8"?>
<!-- Generator: Adobe Illustrator 27.7.0, SVG Export Plug-In . SVG Version: 6.00 Build 0)  -->
<svg version="1.1" xmlns="http://www.w3.org/2000/svg" xmlns:xlink="http://www.w3.org/1999/xlink" x="0px" y="0px"
	 viewBox="0 0 792 612" style="enable-background:new 0 0 792 612;" xml:space="preserve">
<style type="text/css">
	.st0{fill:#252424;}
	.st1{fill:#A39F98;}
	.st2{fill:#CD2027;}
	.st3{fill:#CF2026;}
	.st4{fill:#FFFFFF;}
	.st5{fill:#D52027;}
</style>
<g id="Layer_2">
	<path class="st0" d="M479.83,452c0,0-1.33-7,11.5-7c12.83,0,17.83-6.67,17.83-6.67S519,458,525,464.17c0,0-0.17,10.33-15,8.83
		c0,0-6.17,13.17-21.67,18.67S469.67,496,465.5,503.5s-15.17,10.83-22.5-0.17c0,0-13.17,0.67-20.67,3c-7.5,2.33-15.67,3.5-23.17,3.5
		s-28.5-5-34-5c0,0-1.17,7.5-15.17,5.33s-11.67-10.67-11.67-10.67s-15.83-0.67-28.67-8.83c-12.83-8.17-13-14-13-14
		s-13.67,2-17.33-11.5c0,0,3-9.5,8-13.83c5-4.33,6.17-9.83,6.17-9.83s5.83,6.67,13.83,6.67s15.83,1,15.83,7s-2.33,0.83-2.33,7.5
		c0,0,8,3,13.83,4.33s18.17,2.5,20.67,11.67c0,0,1.83-4.5,13.17-4.5s17.5,3.17,31.67,3.17c14.17,0,22.33-3.17,34.5-3.17
		c12.17,0,14.83,4.5,14.83,4.5s0.5-8.5,15.5-11.33c15-2.83,22.58-5.08,17.67-10C482.67,457.33,480,455.83,479.83,452z"/>
	<path class="st0" d="M370.43,197.36c0,0,4.67-3,0.33-4.67c-4.33-1.67-6.67-3.67-6.67-8c0-4.33,5-7.33,11-8.33s5.67-2.67,4-7.67
		c-1.67-5-0.33-8-0.33-8s-1.67-2.67-1.33-7c0.33-4.33,5.67-20,19.67-20c14,0,20.33,10,20.33,18.33c0,8.33-2.33,10.67-10.33,18.33
		c0,0-1.33,5,3,5.33c4.33,0.33,7.33,2.67,13,3.33c5.67,0.67,8.33,7,7.67,9.33c-0.67,2.33-3.67,5.67-3.33,8.33
		c0,0,17.67,9.67,45.67,13.33c0,0,4.67-5.33,7-5.33s4.67-0.33,9.67-1c5-0.67,11.33,5.33,10,14.33c0,0,31.67,35.67,31.67,93.67
		c0,0,1,11.33-3,16.67c-4,5.33-0.67,0.33-0.67,22.67c0,0,1,12.67-6.67,19l0.33,27.67c0,0-2.33,10-12,17c-9.67,7-22,13.33-28,17.67
		s-19,19.33-26.33,27.67c-7.33,8.33-16.67,14.67-24.33,14.67c-7.67,0-15.33-1.33-15.33-18c0,0-16.67,1.33-27,0.33c0,0,4.33,16-14,16
		c-18.33,0-36-23.33-48.67-32c-12.67-8.67-18.33-14.33-35-23.67c-16.67-9.33-16.67-13.67-16.67-31.33v-19.33c0,0-6.33-3-6.33-10.67
		c0-7.67,6.67-25,3-35.33c-3.67-10.33-3.67-1.33-2-26.67s21.67-65.33,29.67-73.33c0,0-3-16,8.67-16c0,0,2.33,0.67,7.67,0.67
		s10,4,10.67,6C325.43,211.36,340.77,215.03,370.43,197.36z"/>
</g>
<g id="Layer_5">
	<path class="st1" d="M282.33,306.33l1,11.67C283.33,318,267.33,319.33,282.33,306.33z"/>
	<path class="st1" d="M295.67,300v6.33C295.67,306.33,304,301,295.67,300z"/>
	<path class="st1" d="M283,340.67c0,0,4.33,17,6.33,21.33c0,0-15.33,3.67-15.33-8.33C274,353.67,272.33,349.33,283,340.67z"/>
	<path class="st1" d="M300,340.33V359C300,359,317,342,300,340.33z"/>
	<path class="st1" d="M288.33,302c0,0,1.67-1.67,3-1.67c0,0,1,20.67-3,23V302z"/>
	<path class="st1" d="M290,327.33c0,0,1.67,6.33,4.67,9.33l0.67,29c0,0-5.67-13.33-7.67-34.67L290,327.33z"/>
	<path class="st1" d="M310,384.33l-0.33,12.33C309.67,396.67,318.67,389.67,310,384.33z"/>
	<path class="st1" d="M296,370c0,0,1,7,9,11.33v21.33c0,0,20.67,4,20.67-37s-10-60-10-124c0,0-1-18.67,4-18.67s4.67,3,4.67,3
		s-7.33,1.33-7.33,15.67c0,14.33,0.33,37.67,10,51c0,0,7,54.33,42.33,92.67l-5.67,68.33c0,0,0,11,19,11c0,0-1,1.67-7.33,1.67
		s-17.33-5.67-31-18.67s-36.33-29.33-52.33-37c-16-7.67-13-14.33-7-22.67S295,373.33,296,370z"/>
	<path class="st1" d="M374,391.33c0,0,20,17.67,29.33,23.33c0,0,16.33-10.33,25-19.33l3.33,55c0,0-8.33-0.67-19,0
		C402,451,386.33,450,386.33,450s-13.33-1-16,3.33L374,391.33z"/>
	<path class="st2" d="M381,454.67c0,0,3.67,2.67,3,4.33C384,459,364,458.67,381,454.67z"/>
	<path class="st2" d="M421,454c0,0-1.67,2.33-1.33,5.33C419.67,459.33,444.34,453.67,421,454z"/>
	<path class="st1" d="M485.67,271.33c0,0-2.33,42-5.67,57.67s-14.67,79,11.33,81c0,0-3.33-21.67,4.67-27.67s5.67-23.33,7.67-42.67
		c0,0,7.33-8,6.33-0.67s-6.67,22.33-6.67,29.67c0,7.33,12,20.67,12,29c0,8.33-20.67,21-20.67,21s-18,10.67-21.33,14
		c-3.33,3.33-9,9-15.33,17.33s-17,18-28.33,18c-11.33,0-7.33-4.67-0.67-6.67s8.33-3.67,8-13.33s-3-58.67-3-58.67s41-40,45.33-109.33
		c0,0,1.33,6.67,0.67,11c0,0,3.67-8,4.33-19.67H485.67z"/>
	<path class="st1" d="M486,394.67c0,0-0.33,3.67,0,7C486.33,405,480.33,396.33,486,394.67z"/>
	<path class="st1" d="M499,340.67c0,0-0.33,12.67-1.33,19C497.67,359.67,485.67,344.33,499,340.67z"/>
	<path class="st1" d="M513.67,344.33c0,0-5.33,14-5.33,18.33C508.33,362.67,533.67,373.33,513.67,344.33z"/>
	<path class="st1" d="M505.67,307l0.33,10.33C506,317.33,500,310.33,505.67,307z"/>
	<path class="st1" d="M510.33,307c0,0,2,0.67,5,3.33L510.67,324C510.67,324,509,313.67,510.33,307z"/>
	<path class="st1" d="M520,311.67l-4.33,12C515.67,323.67,535.67,325.67,520,311.67z"/>
	<path class="st1" d="M448.33,235.67c0,0,3-3.33,8.67-3.67C457,232,454.67,236.67,448.33,235.67z"/>
	<path class="st1" d="M456,238l11.67-6.33l-5.33,7.67C462.33,239.33,456.67,239.33,456,238z"/>
	<path class="st1" d="M466.33,240.33c0,0,8.33,3.67,10.33,4.67l0.67,3.67c0,0,1.67,1.33,1.67-1s-0.33-9.33-4.33-9
		S470,233.67,466.33,240.33z"/>
	<path class="st1" d="M474.33,226.67c0,0-4.67,1-6,2.33C467,230.33,475,232,474.33,226.67z"/>
	<path class="st1" d="M479.33,228c0,0,2.67,3.33,1.67,9l-6.33-3C474.67,234,476.33,229.33,479.33,228z"/>
	<path class="st1" d="M484.33,239.33c0,0,0.07,0.22,0.18,0.62c0.59,2.07,2.38,8.9,1.82,13.38H482
		C482,253.33,481.67,243.33,484.33,239.33z"/>
	<path class="st1" d="M480,254.67c0,0,2.67,6.33,0.67,10.67h-2l-0.67-13C478,252.33,479.67,253.33,480,254.67z"/>
	<path class="st1" d="M484,256.33l2.33-0.33C486.33,256,486,272,484,256.33z"/>
	<path class="st1" d="M352,230c0,0,9.67,1.33,14.67,0.67c5-0.67-2,4.33-2,4.33S357,235.33,352,230z"/>
	<path class="st1" d="M342.67,230.33c0,0,9,6,12.67,6.67c0,0-4.33,0.33-6.33,1C349,238,342.67,233.67,342.67,230.33z"/>
	<path class="st1" d="M346,239.33c0,0-3,0.67-5,1.33C341,240.67,322.33,223.67,346,239.33z"/>
	<path class="st1" d="M337,242.67c0,0-8,2.33-13.67,5c0,0-2.33-5,1.67-7.33c4-2.33,2.41,1.43,7.33-2.67
		C334.33,236,337,242.67,337,242.67z"/>
	<path class="st1" d="M319.67,241c0,0,4.33-4.33,7.67-4.67C327.33,236.33,321.67,223,319.67,241z"/>
	<path class="st1" d="M487.14,449.55c0,0,1.73-0.69,11.04-1.73c9.32-1.04,8.19-4.29,11.99-0.49c3.8,3.8,3.2,9.46,8.03,14.3
		c4.83,4.83-1.38,5.87-2.76,6.21c-1.38,0.35-3.11,2.76-6.21-2.07C506.12,460.94,497.49,449.21,487.14,449.55z"/>
	<path class="st1" d="M456.42,484.41c0,0-3.11-9.66,3.8-11.39s23.47-4.83,28.99-10.01c5.52-5.18-0.04-12.84,10.7-2.07
		c7.07,7.09,6.9,11.04,2.76,16.22c-4.14,5.18-7.59,8.63-24.5,13.81C461.25,496.14,466.43,497.52,456.42,484.41z"/>
	<path class="st1" d="M451.59,490.97c0,0,0.35-6.56,2.76-2.42c2.42,4.14,4.14,7.59,5.87,8.97c1.73,1.38,3.45,2.42,1.38,4.49
		c-2.07,2.07-3.11,3.45-9.66,3.11c0,0-2.76,0-1.73-2.76C451.24,499.6,451.93,497.18,451.59,490.97z"/>
	<path class="st1" d="M358.06,486.48c0,0,0.69-7.59,9.66-7.59c8.97,0,19.33,3.11,33.48,3.11c14.15,0,26.57-4.14,34.17-4.14
		c7.59,0,12.08,3.45,12.08,12.08s-1.42,9.24-6.95,9.24c-5.52,0-20.88,6.5-39.17,6.5c-18.29,0-25.67-5.04-41.55-5.04
		C359.78,500.63,358.06,496.49,358.06,486.48z"/>
	<path class="st1" d="M347.01,504.43c0,0-3.45-1.04,0-3.8c3.45-2.76,4.14-6.9,4.83-7.94c0.69-1.04,1.38-3.8,1.73-0.35
		c0.35,3.45,1.04,8.97,2.07,10.35c1.04,1.38,0.69,3.45-1.73,3.11C351.5,505.46,349.08,505.46,347.01,504.43z"/>
	<path class="st1" d="M293.5,449.17c0,0,2.09-1.69,5.88,0.38c3.8,2.07,16.62-0.05,8.63,5.18c-5.78,3.78-8.97,10.35-11.04,14.5
		c-2.07,4.14-2.42,4.49-5.52,3.45c-3.11-1.04-11.96-5.31-6.78-11.17C289.84,455.63,293.5,449.17,293.5,449.17z"/>
	<path class="st1" d="M311.5,462.17c-3.17-3.17-6.25,0.85-6.25,0.85c-6.56,11.39-4.49,13.8-4.49,13.8
		c12.77,18.98,42.45,20.02,42.45,20.02c5.87-4.83,6.21-12.08,7.59-15.19c1.38-3.11,0.69-3.8-2.76-6.21
		c-3.45-2.42-16.91-4.83-20.71-5.52c-3.8-0.69-11.39-4.83-11.39-4.83L311.5,462.17z"/>
	<path class="st1" d="M459,337l-99-95c0,0-17.17,2.33-32.33,9.67c0,0,0.67,13.67,1,15.33l109.67,107C438.33,374,448.5,364,459,337z"
		/>
</g>
<g id="Layer_4">
	<path class="st0" d="M315.95,465.08c1.79,2.63,2.76,3.8,6.56,6.56c3.8,2.76-3.11,3.11-3.11,3.11s-3.11-2.07-4.14,2.07
		c-1.04,4.14-2.76,6.21-3.8,5.52c-1.04-0.69-2.76-2.76-0.35-6.56c2.42-3.8,0.35-2.76,0.35-2.76c-7.94,11.04-9.32,0-4.49-3.11
		c4.83-3.11,2.76-1.04,1.73-5.52c-1.04-4.49,3.13-2.73,3.13-2.73S313.74,461.83,315.95,465.08z"/>
	<path class="st0" d="M355.64,498.91c0,1.91-1.46,3.45-3.26,3.45c-1.8,0-3.26-1.54-3.26-3.45c0-1.91,1.46-3.45,3.26-3.45
		C354.18,495.45,355.64,497,355.64,498.91z"/>
	<path class="st0" d="M327,479.58c0,2.1-1.24,3.8-2.76,3.8c-1.52,0-2.76-1.7-2.76-3.8c0-2.1,1.24-3.8,2.76-3.8
		C325.76,475.78,327,477.48,327,479.58z"/>
	<path class="st0" d="M299.73,460.59c0,2.1-1.7,3.8-3.8,3.8c-2.1,0-3.8-1.7-3.8-3.8s1.7-3.8,3.8-3.8
		C298.03,456.8,299.73,458.5,299.73,460.59z"/>
	<path class="st0" d="M378.42,490.62c0,2.1-1.7,3.8-3.8,3.8c-2.1,0-3.8-1.7-3.8-3.8c0-2.1,1.7-3.8,3.8-3.8
		C376.72,486.83,378.42,488.53,378.42,490.62z"/>
	<path class="st0" d="M436.75,489.59c0,1.91-1.54,3.45-3.45,3.45c-1.91,0-3.45-1.54-3.45-3.45c0-1.91,1.54-3.45,3.45-3.45
		C435.2,486.13,436.75,487.68,436.75,489.59z"/>
	<path class="st0" d="M459.18,497.87c0,2.1-1.7,3.8-3.8,3.8c-2.1,0-3.8-1.7-3.8-3.8c0-2.1,1.7-3.8,3.8-3.8
		C457.48,494.07,459.18,495.77,459.18,497.87z"/>
	<path class="st0" d="M482.99,478.89c0,1.72-1.39,3.11-3.11,3.11s-3.11-1.39-3.11-3.11c0-1.72,1.39-3.11,3.11-3.11
		S482.99,477.17,482.99,478.89z"/>
	<path class="st0" d="M512.67,456.97c0,2.19-1.78,3.97-3.97,3.97c-2.19,0-3.97-1.78-3.97-3.97c0-2.19,1.78-3.97,3.97-3.97
		C510.9,453,512.67,454.78,512.67,456.97z"/>
	<path class="st0" d="M341.84,478.89c0,0,5.18-1.38,3.11,3.11s-3.11,7.25-2.42,10.01c0.69,2.76-3.11,2.42-4.83,0.35
		c0,0-8.28,0-8.28-7.94S338.73,475.78,341.84,478.89z M338.91,481.04c-1.06-0.63-2.76,0.26-3.79,1.99c-1.03,1.73-1,3.65,0.07,4.28
		c1.06,0.63,2.76-0.26,3.79-1.99C340,483.58,339.97,481.67,338.91,481.04z"/>
	<path class="st0" d="M390.5,492.69c0,0,1.04-8.97,4.49-8.97c3.45,0,1.73,5.18,1.73,5.18v4.83c0,0,2.42,3.8,3.11-0.34
		c0.69-4.14,0.69-6.56,3.45-6.56c2.76,0,2.07,3.45,2.07,3.45s-1.38,5.52,1.38,5.52c2.76,0,3.11-3.8,2.42-7.25
		c-0.69-3.45,1.38-6.56,4.14-2.42c2.76,4.14,1.73,6.9,1.73,6.9s-0.35,9.32-6.21,9.32c-5.87,0-6.21-2.76-6.21-2.76
		s-2.42,3.11-5.87,3.11S390.5,497.18,390.5,492.69z"/>
	<path class="st0" d="M464.5,473.83c0,0,3.5-0.17,3.5,2.33s-7.67,1.5-1.5,3.17c4.48,1.21-1.17,2.33-0.5,5.67s2.67,0,2.67-1
		s4-3,4,1.5s-4.5,5-6,5s-5.5-3.17-4.33-6.67C462.33,483.83,455.5,477.17,464.5,473.83z"/>
	<path class="st0" d="M490.67,466c0,0-1-2.83,1-2.83s2.17,1.33,3.67,2.67c1.5,1.33,2,3.5,3.5,4.17s5.33,3.33,0.83,4.83
		c0,0-0.5,5.67-5.67,5.67s-8.33-4.67-8.33-8S490.67,466,490.67,466z M490.55,470.74c-0.75,0.81-0.26,2.48,1.09,3.73
		c1.35,1.25,3.06,1.61,3.81,0.8c0.75-0.81,0.26-2.48-1.09-3.73C493.01,470.28,491.3,469.93,490.55,470.74z"/>
</g>
<g id="Layer_7">
	<path class="st3" d="M272.33,310c0,0,13.67-17.67,26-15.33c0,0-6-38,7.33-67.33c0,0,3.67-10.67-5-4C292,230,269.67,286,272.33,310z
		"/>
	<path class="st3" d="M305.33,239c0,0-11,32-2.67,56.67C302.67,295.67,304,243.33,305.33,239z"/>
	<path class="st3" d="M276.33,323.33c0,0,7-3,7,3.33c0,6.33-8.67,13.33-8.67,13.33L276.33,323.33z"/>
	<path class="st3" d="M303.67,307c0,0-0.33,19.67,3.33,29.67c0,0-13.33-3-13.33-13.33C293.67,313,303.67,307,303.67,307z"/>
	<path class="st3" d="M309.67,237l2-2c0,0,0.67,57.33,5.67,88.33s2.67,57,0.33,66c0,0,2.33-7.67-8-12.67c-10.33-5-11-9-4.33-16.67
		s8-12.33,5.67-21S306,265.67,309.67,237z"/>
	<path class="st3" d="M279.33,366.33l-0.67,19C278.67,385.33,304.67,366.33,279.33,366.33z"/>
	<path class="st3" d="M487,227.67c0,0,6.67,53.67-3,100.67c-9.67,47-3.67,63.67-3.67,63.67s4.67-8.33,8.67-10.67
		c4-2.33,7.67-3.33,7.67-9c0-5.67-10.33-15.67-10.33-24.67s7.33-27.67,7.33-68.33C493.67,238.67,487,227.67,487,227.67z"/>
	<path class="st3" d="M489.33,223.33c0,0,14.67,25.33,3,113c0,0,13,0.67,13-7c0-7.67-7.67-12-7.67-19.33
		c0-7.33,3.67-4.33,3.67-25.67C501.33,263,499.34,233.67,489.33,223.33z"/>
	<path class="st3" d="M498,221c0,0,31.33,35,28.67,91c0,0-9.33-10.67-22.33-9.33c0,0,3.33-62.33-9-78
		C495.33,224.67,493.33,219,498,221z"/>
	<path class="st3" d="M523,329.67c0,0-21-5.33-0.33,20L523,329.67z"/>
	<path class="st3" d="M518,370.33c0,0-19.33-7.67-1,15.33L518,370.33z"/>
	<path class="st3" d="M331.67,275.79l104.67,103.67c0,0-19.67,18.67-32.67,28.67C403.67,408.12,336.67,363.79,331.67,275.79z"/>
	<path class="st3" d="M460.67,332.67l-78.33-76.33c0,0,18.33-0.67,26.67-11c0,0,11.33,5.67,21.33-7.33c0,0,24.33,3,42.67,11.67
		C473,249.67,478,296.67,460.67,332.67z"/>
</g>
<g id="Layer_6">
	<path class="st0" d="M301.67,227.67c0,0-23.67,40.67-23.67,69.33c0,0,6-4.33,14-6.33C292,290.67,295.33,248.67,301.67,227.67z"/>
	<path class="st0" d="M326,338c0,0,20,9.33,37.33,63.33c0,0-9.33,2-9.33,9.67s6.67,21.67,6.67,30s-6.33,9.67-6.33,9.67
		S356.67,447,353,443s-18.67-22.33-18.67-32s5.67-12.67,5.67-12.67S341,361.33,326,338z"/>
	<path class="st0" d="M505,243c0,0,17,17.67,17,59.33c0,0-9.67-4.67-14-5.67C508,296.67,510.33,261.67,505,243z"/>
	<path class="st0" d="M378.67,402.67c0,0,14.67,14.33,23.67,18c0,0,12-6.33,21.67-17.67c0,0,5.67,19.33-21,40
		C403,443,379.67,427.33,378.67,402.67z"/>
	<path class="st0" d="M466.33,340.33c0,0,4.67,13.33-2,30.67c-6.67,17.33-6,26-6,26s8.33,6,8.33,16s-15.33,21.33-14.67,34
		c0,0-7.67-3.33-7.67-11s4.33-10,4.33-18s-5-14.33-11-17c0,0,7.33-18,13-26.67C456.33,365.67,464.67,350.33,466.33,340.33z"/>
	<path class="st1" d="M367.67,237.33c0,0,4.67-6,8-7.67c0,0,3.22,1.1,3.55,2.76c0,0-2.89,11.9,7.11,11.9s18.31-13.17,18.31-13.17
		s6.69,9.51,21.02-4.16c0,0,4.67,1.33,6,4.33c0,0-17.33,15.33-23.33,8c0,0-12.67,11.33-24,11.33s-11.66-9.03-11.33-11.03
		L367.67,237.33z"/>
	<path class="st1" d="M419,225c0,0-7.67,12-14.33,0.33c0,0-10.17,15-17.83,15s-3.17-10.5-1.5-12.5c0,0-9,1.67-3.33-2.33
		s4.5,1.17,8.5-4.83c0,0,9.17,1.67,15.5-9c0,0,0-12.33,2.67-15.67c0,0-4.5-10.5-14-9c0,0,19.83-6.17,20,13c0,0,0.5,10.67-8,14.67
		c0,0,3.17,4.67,3.5,7.67C410.17,222.33,415.33,222.33,419,225z"/>
	<path class="st1" d="M404.83,195.5c0,0-2.5,10.5-0.67,14.67C404.17,210.17,395.67,206,404.83,195.5z"/>
	<path class="st1" d="M402.17,191.17c0,0-6,12.17-2.67,22.83C399.5,214,389.17,204.5,402.17,191.17z"/>
	<path class="st1" d="M398,189.33c0,0-8.67,13.5-3.33,27.33C394.67,216.67,382.67,202.17,398,189.33z"/>
	<path class="st1" d="M392.17,191.33c0,0-9,12.83-3.67,22.33C388.5,213.67,377.33,201.83,392.17,191.33z"/>
	<path class="st1" d="M386.83,191.33c0,0-7.67,10.33-3.67,20.83C383.17,212.17,373.33,201.17,386.83,191.33z"/>
	<path class="st4" d="M367.67,183.33c0,0,0-3.33,2.33-4c2.33-0.67,2.33-1,4,1s1.67,4.33,3,4.33s1.67,3.67-2.67,3.33
		S367.67,185.33,367.67,183.33z"/>
	<path class="st3" d="M378,182c0,0-2.67-4,0.33-5s3.67-1.33,7,2.67s2.67,5,0.67,5.67C384,186,380,185.33,378,182z"/>
	<path class="st4" d="M389.33,181.33c0,0-3.33-5.33,0-5.67s5.33,1.33,6,3.33s3.33,4.33-1.33,4.67
		C389.33,184,389.33,181.33,389.33,181.33z"/>
	<path class="st3" d="M399.67,181c0,0-5.33-4,0-4.67c5.33-0.67,5.33,2.33,6.33,3.67c1,1.33,2.33,4-1,4S399.67,181,399.67,181z"/>
	<path class="st4" d="M408.67,181c0,0-1.33-3.67,1.67-3.67s6.67,1.67,7,6c0.33,4.33,0.33,4-2,3.67C413,186.67,411,186.33,408.67,181
		z"/>
	<path class="st3" d="M420.33,186c0,0-3-7.33,3-5c6,2.33,5,7,3.33,8C425,190,422,190,420.33,186z"/>
	<path class="st1" d="M391.33,171c0,0-3.67,2,0.33,2.67s12-1,11.67-6.33c-0.33-5.33-3.67-4.67-4.33-1.67S399.67,170.33,391.33,171z"
		/>
	<path class="st1" d="M382.67,152.67c0,0-0.67,11,2.33,11.67c3,0.67,7.67,0.67,9.33,0c1.67-0.67-1.67-2,2-2s7.67-1.67,3.67-5.67
		s-7.67-14.67,11-13.33c0,0,1.33,1.67-2.67,2.33c-4,0.67-10.67,0.33-8,6.33c2.67,6,5.33,4.67,6.67,4.67s7.67-0.33-1.33,6.33
		c0,0,8.67-0.33,8.67-12c0-11.67-11-15.33-18-15.33c-7,0-12.67,7.67-12.33,12C384,147.67,382.67,150.67,382.67,152.67z"/>
</g>
<g id="Layer_8">
	<path class="st4" d="M344,395.67l12.67-0.67c0,0-9.33-26-17.67-37.33C339,357.67,343.67,375.33,344,395.67z"/>
	<path class="st5" d="M355.67,399.67c0,0-15,5.67,0.33,37c0,0-17.67-16.67-17.67-26.33C338.33,400.67,350,396.67,355.67,399.67z"/>
	<path class="st5" d="M446.67,401.67c0,0,15.33-2,15.33,11s-9.67,14.33-11.67,19.67c0,0,0-6.33,1.67-9.33S454.33,408,446.67,401.67z
		"/>
	<path class="st4" d="M444.33,396.67c0,0,11-23,16.33-30.67c0,0,0.33,6-2,10c-2.33,4-4.67,18.33-3.67,21
		C455,397,447,395.67,444.33,396.67z"/>
	<path class="st4" d="M388,417.33c0,0,8.33,7,14,9.33c0,0,11.33-5.67,17-14c0,0-3.67,17-16,24.67C403,437.33,390,429.33,388,417.33z
		"/>
	<path class="st1" d="M292.29,256.33c0,0-9.92,18.92-9.92,33.67c0,0,2.77-1.23,6.46-2.26C288.83,287.74,289.37,267.14,292.29,256.33
		z"/>
	<path class="st1" d="M511.33,260c0,0,1.33,22.33,0.33,33.33c0,0,5.33,1.33,6.67,2.33C518.33,295.67,517.33,268,511.33,260z"/>
	<path class="st0" d="M397.67,155c0,1.66-1.57,3-3.5,3c-1.93,0-3.5-1.34-3.5-3c0-1.66,1.57-3,3.5-3
		C396.1,152,397.67,153.34,397.67,155z"/>
	<ellipse class="st0" cx="384" cy="155.83" rx="3" ry="3.5"/>
	<path class="st0" d="M389,161c0-1.84-0.9-3.33-2-3.33c-1.1,0-2,1.49-2,3.33c0,1.84,0.9,3.33,2,3.33
		C388.1,164.33,389,162.84,389,161z"/>
	<path class="st3" d="M327.33,221c0,0,32.67,1,50-9c0,0,11.67,7-27.33,9.67c0,0,10.33,2,29.33,0.33c0,0-2,2.67-6.33,4
		C373,226,336.67,225.67,327.33,221z"/>
	<path class="st3" d="M325.67,217.33c0,0-0.33-3.33,2-3.67c0,0,20.33,3,49.33-15.67c0,0-1.33,5.67-0.67,9.33
		C376.33,207.33,357,219.66,325.67,217.33z"/>
	<path class="st3" d="M311.67,216.33c0,0,1.67,3,4.33,3c2.67,0,5.67-2.33,5.67-6c0-3.67-2.67-7-5.33-6.67
		c-2.67,0.33-4.33,1.33-6.67,0c-2.33-1.33-6.67,0.33-6.67,5.67c0,5.33,3,6.33,4.67,6.33C309.33,218.67,311.67,216.33,311.67,216.33z
		"/>
	<path class="st3" d="M412,218c0,0-1.67-3,1.67-2.33C417,216.33,424,222,442,220c0,0-22.67-2.67-26.67-8c0,0,0.67-0.33,1.67-3.33
		c0,0,15.67,10,52.67,9C469.67,217.67,442.67,230,412,218z"/>
	<path class="st3" d="M418.33,203.67c0,0,1.33-5,0.67-8c0,0,24.67,13.33,51.33,17C470.33,212.67,441.67,217.67,418.33,203.67z"/>
	<path class="st3" d="M479.5,208.85c0,0,2.12-3.67,5.08-2.12c2.97,1.55,4.1-0.42,4.1-0.42s6.78-3.81,7.34,6.07
		c0.57,9.89-6.21,6.36-6.21,6.36s-2.12-1.41-3.53,0.14C484.86,220.43,474.13,223.68,479.5,208.85z"/>
	<path class="st3" d="M439.81,227.06c0,0-5.23,2.97,0.99,3.81c6.21,0.85,31.92-9.18,37.99-6.78c0,0-0.28-6.21-9.18-2.4
		C460.71,225.51,443.48,227.77,439.81,227.06z"/>
</g>
<g id="Layer_1">
	<g>
		<polygon class="st0" points="335.96,244.63 373.04,254.57 344.34,283.27 334.38,246.07 		"/>
		<polygon class="st2" points="345.97,277.2 338.28,248.5 366.98,256.19 		"/>
		<polygon class="st0" points="347.99,269.23 343.96,254.19 359.01,258.22 		"/>
		<polygon class="st1" points="353.16,259.47 347.81,258.04 349.25,263.39 		"/>
	</g>
	<polygon class="st0" points="358.21,266.13 395.29,276.07 366.59,304.77 356.63,267.57 	"/>
	<polygon class="st2" points="368.22,298.7 360.53,270 389.23,277.69 	"/>
	<polygon class="st0" points="370.24,290.73 366.21,275.69 381.26,279.72 	"/>
	<polygon class="st1" points="375.41,280.97 370.06,279.54 371.5,284.89 	"/>
	<g>
		<polygon class="st0" points="380.7,287.66 417.79,297.6 389.08,326.3 379.12,289.11 		"/>
		<polygon class="st2" points="390.71,320.24 383.02,291.53 411.72,299.22 		"/>
		<polygon class="st0" points="392.74,312.26 388.7,297.22 403.75,301.25 		"/>
		<polygon class="st1" points="397.9,302.5 392.56,301.07 393.99,306.42 		"/>
	</g>
	<g>
		<polygon class="st0" points="403.46,309.38 440.54,319.32 411.84,348.02 401.88,310.82 		"/>
		<polygon class="st2" points="413.47,341.95 405.78,313.25 434.48,320.94 		"/>
		<polygon class="st0" points="415.49,333.98 411.46,318.94 426.51,322.97 		"/>
		<polygon class="st1" points="420.66,324.22 415.31,322.79 416.75,328.13 		"/>
	</g>
	<g>
		<polygon class="st0" points="425.71,331.63 462.79,341.57 434.09,370.27 424.13,333.07 		"/>
		<polygon class="st2" points="435.72,364.2 428.03,335.5 456.73,343.19 		"/>
		<polygon class="st0" points="437.74,356.23 433.71,341.19 448.76,345.22 		"/>
		<polygon class="st1" points="442.91,346.47 437.56,345.04 439,350.38 		"/>
	</g>
	<path class="st1" d="M459.5,338"/>
</g>
</svg>
