<?xml version="1.0" encoding="utf-8"?>
<!-- Generator: Adobe Illustrator 27.7.0, SVG Export Plug-In . SVG Version: 6.00 Build 0)  -->
<svg version="1.1" id="Layer_1" xmlns="http://www.w3.org/2000/svg" xmlns:xlink="http://www.w3.org/1999/xlink" x="0px" y="0px"
	 viewBox="0 0 144 108" style="enable-background:new 0 0 144 108;" xml:space="preserve">
<style type="text/css">
	.st0{fill:#BF311A;}
	.st1{fill:#FFFFFF;}
</style>
<g>
	<polygon points="74.71,98.91 125.65,13.94 23.77,13.94 	"/>
	<path class="st0" d="M120.02,17.13H29.4c2.32,3.88,43.1,71.89,45.31,75.57C76.92,89.02,117.7,21.01,120.02,17.13"/>
	<polygon points="63.06,20.75 62.73,20.75 37.95,20.75 37.37,20.75 36.15,20.75 36.76,21.8 37.07,22.34 41.96,30.82 42.05,30.98 
		42.25,31.34 42.66,31.34 42.85,31.34 47.49,31.34 48.08,31.34 49.3,31.34 48.68,30.29 48.38,29.76 46.79,27.02 50.69,27.02 
		50.69,45.87 50.69,45.96 50.69,46.16 50.79,46.32 50.84,46.4 50.84,46.4 54.14,52.12 54.9,53.43 55.52,54.52 56.82,56.77 
		56.82,54.16 56.82,52.9 56.82,27.01 62.73,27.02 63.06,27.02 63.75,27.02 63.75,26.32 63.75,25.97 63.75,21.8 63.75,21.46 
		63.75,20.75 	"/>
	<polygon points="88.23,63.57 88.14,63.39 76.62,42.04 86.93,22.23 87.2,21.72 87.74,20.69 86.58,20.69 86.02,20.69 81.23,20.69 
		81.02,20.69 80.6,20.69 80.4,21.08 80.3,21.26 71.56,38.31 71.57,21.76 71.57,21.41 71.57,20.71 70.87,20.71 70.53,20.71 
		66.49,20.71 66.14,20.71 65.45,20.71 65.45,21.41 65.45,21.76 65.45,69.72 65.45,69.82 65.45,70.01 65.54,70.16 65.59,70.25 
		69.64,77.27 70.26,78.35 71.56,80.6 71.56,78 71.56,76.74 71.56,45.7 83.91,68.59 84.2,69.11 84.79,70.21 85.42,69.13 85.71,68.61 
		88.13,64.43 88.23,64.26 88.42,63.92 	"/>
	<path d="M112.33,20.75h-0.59H89.19h-0.34h-0.7v0.7v0.34v6.77c-0.01,0.03-0.01,0.04-0.01,0.07c0,0.05,0,0.11-0.01,0.18v0.2v23.75
		v0.35v0.7h0.7h0.34h4.69h0.2h0.41l0.2-0.35l0.1-0.17l7.95-13.76l0.3-0.53l0.6-1.05h-1.21h-0.59H97.1h-0.19h-0.4l-0.2,0.35
		l-0.1,0.17l-2.11,3.58v-5.32h2.98h0.33h0.7v-0.7v-0.35v-4.37v-0.35v-0.7h-0.7h-0.33h-2.82v-3.3h8.6l-1.6,2.78l-0.31,0.53l-0.6,1.04
		h1.21h0.59h4.7h0.19h0.4l0.2-0.35l0.09-0.17l4.89-8.48l0.31-0.53l0.61-1.05H112.33z"/>
	<path class="st1" d="M111.15,21.96H89.52h-0.2v0.2v6.86c0,0.05,0,0.1,0,0.15H89.3v0.2v23.06v0.2h0.2h4.18h0.11l0.06-0.1l7.55-13.06
		l0.17-0.3h-0.34h-3.94h-0.11l-0.06,0.1l-3.94,6.69c0,0-0.12,0.2-0.25,0.43l0-0.51v-3.31v-6.87v-0.15h0.14h3.68h0.2v-0.2v-3.67v-0.2
		h-0.2h-3.52h-0.14v-0.15v-5.39v-0.16h0.14h11.44h0.26l-0.14,0.24c0,0-2.21,3.83-2.21,3.83l-0.17,0.3h0.34h3.92h0.11l0.06-0.1
		l4.48-7.78l0.17-0.3H111.15z"/>
	<path class="st1" d="M62.39,21.96H38.55h-0.34l0.17,0.3l4.5,7.78l0.06,0.1h0.11h3.85h0.34l-0.17-0.3l-2.19-3.79
		c0,0-0.07-0.11-0.14-0.24H45h6.73h0.14v0.15v19.8v0.05l0.03,0.05l3.25,5.64c0,0,0.13,0.23,0.13,0.23l0.37,0.62v-0.72V25.97v-0.15
		h0.14l6.6,0h0.2v-0.2v-3.46v-0.2H62.39z"/>
	<path class="st1" d="M87.02,63.8L75.33,42.13c0,0-0.02-0.04-0.05-0.08l0.04-0.08c0,0,10.31-19.79,10.31-19.79l0.15-0.29h-0.33
		h-4.03h-0.12L81.25,22l-9.19,17.91l-0.04,0.08h-0.08h-1.41h-0.14v-0.16l0.01-17.73v-0.2h-0.2h-3.38h-0.2v0.2v47.51v0.05l0.03,0.04
		l3.37,5.85l0.37,0.64v-0.74V44.2v-0.15h0.14h1.4h0.08l0.04,0.07c0,0,12.61,23.36,12.61,23.36l0.17,0.31L85,67.49l2.02-3.49
		l0.06-0.09L87.02,63.8z"/>
</g>
</svg>
