<?xml version="1.0" encoding="utf-8"?>
<!-- Generator: Adobe Illustrator 27.7.0, SVG Export Plug-In . SVG Version: 6.00 Build 0)  -->
<svg version="1.1" xmlns="http://www.w3.org/2000/svg" xmlns:xlink="http://www.w3.org/1999/xlink" x="0px" y="0px"
	 viewBox="0 0 144 144" style="enable-background:new 0 0 144 144;" xml:space="preserve">
<style type="text/css">
	.st0{fill:#FFFFFF;}
</style>
<g id="Layer_2">
	<rect width="144" height="144"/>
</g>
<g id="Layer_1">
	<path class="st0" d="M108.29,45.59l3.03-5.04l0.42-0.7h-0.81H95.27H94.8v0.46l0,7.1v0.46h0.46h4.81v4.83h-5.03h-0.46v0.46v9.04
		l0,4.35l0,1.64l0.86-1.4l5.39-8.81h5.38L95.87,75.18h-5.71l0-30.34c0.03,0,0.03-0.46,0.03-0.46v-9.03h29.59l-6.14,10.25H108.29z
		 M85.2,93.03L69,64.14l-0.13-0.24H68.6h-1.92h-0.46v0.46v39.69l-4.62-7.7V35.28h4.62l0,23.34v0.46h0.46h1.94h0.28l0.13-0.24
		l12.57-23.57h5.51L73,61.32l-0.12,0.22L73,61.76l14.96,26.67L85.2,93.03z M57.77,39.91l-9.03,0h-0.46v0.46v33.79l-0.18-0.3
		l-4.45-7.43V40.37v-0.46h-0.46h-9.21h-0.81l0.42,0.69l2.99,4.99h-5.27l-6.14-10.25h32.61V39.91z M14,29.08
		c2.99,4.99,55.56,92.66,58.4,97.41c2.85-4.75,55.41-92.41,58.41-97.41H14z"/>
</g>
</svg>
