<?xml version="1.0" encoding="UTF-8"?><svg id="Layer_2" xmlns="http://www.w3.org/2000/svg" viewBox="0 0 116.8 97.4"><defs><style>.cls-1{fill:#fff;}</style></defs><g id="Layer_1-2"><path class="cls-1" d="m94.3,16.5l3-5,.4-.7h-16.9v8.1h5.3v4.8h-5.5v15.4l.9-1.4,5.4-8.8h5.4l-10.4,17.2h-5.7V6.2h29.6l-6.1,10.2-5.4.1h0Zm-23.1,47.4l-16.2-28.9-.1-.2h-2.7v40.2l-4.6-7.7V6.2h4.6v23.8h2.7l.1-.2,12.6-23.6h5.5l-14.1,26-.1.2.1.2,15,26.7-2.8,4.6ZM43.8,10.8h-9.5v34.3l-.2-.3-4.5-7.4V10.8h-10.4l.4.7,3,5h-5.3l-6.1-10.2h32.6v4.5h0ZM0,0c3,5,55.6,92.7,58.4,97.4C61.2,92.6,113.8,5,116.8,0,116.8,0,0,0,0,0Z"/></g></svg>