<?xml version="1.0" encoding="utf-8"?>
<!-- Generator: Adobe Illustrator 27.7.0, SVG Export Plug-In . SVG Version: 6.00 Build 0)  -->
<svg version="1.1" id="Layer_1" xmlns="http://www.w3.org/2000/svg" xmlns:xlink="http://www.w3.org/1999/xlink" x="0px" y="0px"
	 viewBox="0 0 144 144" style="enable-background:new 0 0 144 144;" xml:space="preserve">
<style type="text/css">
	.st0{fill:#FFFFFF;}
</style>
<path class="st0" d="M108.3,45.6l3-5l0.4-0.7h-0.8H95.3h-0.5v0.5v7.1v0.5h0.5h4.8v4.8h-5h-0.5v0.5v9v4.3v1.6l0.9-1.4l5.4-8.8h5.4
	L95.9,75.2h-5.7V44.8c0,0,0-0.5,0-0.5v-9h29.6l-6.1,10.2L108.3,45.6L108.3,45.6z M85.2,93L69,64.1l-0.1-0.2h-0.3h-1.9h-0.5v0.5v39.7
	l-4.6-7.7V35.3h4.6v23.3v0.5h0.5h1.9h0.3l0.1-0.2l12.6-23.6h5.5L73,61.3l-0.1,0.2l0.1,0.2l15,26.7L85.2,93z M57.8,39.9h-9h-0.5v0.5
	v33.8l-0.2-0.3l-4.5-7.4V40.4v-0.5h-0.5H34h-0.8l0.4,0.7l3,5h-5.3l-6.1-10.2h32.6L57.8,39.9L57.8,39.9z M14,29.1
	c3,5,55.6,92.7,58.4,97.4c2.8-4.8,55.4-92.4,58.4-97.4C130.8,29.1,14,29.1,14,29.1z"/>
</svg>
